<?xml version="1.0" encoding="utf-8"?>
<!-- Generator: Adobe Illustrator 18.1.1, SVG Export Plug-In . SVG Version: 6.00 Build 0)  -->
<!DOCTYPE svg PUBLIC "-//W3C//DTD SVG 1.1//EN" "http://www.w3.org/Graphics/SVG/1.1/DTD/svg11.dtd">
<svg version="1.1" id="Layer_1" xmlns="http://www.w3.org/2000/svg" xmlns:xlink="http://www.w3.org/1999/xlink" x="0px" y="0px"
	 viewBox="0 0 300 100" enable-background="new 0 0 300 100" xml:space="preserve">
<g>
	<g opacity="0.75">
		<path fill="#333333" d="M13.8,15.4h3.1v25.8h30.4V15.4h3.1v56.4h-3.1V44H16.9v27.8h-3.1V15.4z"/>
		<path fill="#333333" d="M73.8,71.8h-1.6L58.9,31.3h3l12.5,38.3l12.7-38.3h3.1L76.7,71.8L71,88.5h-3L73.8,71.8z"/>
		<path fill="#333333" d="M127.6,41.7v19c0,8-4.2,12-12.7,12c-4.8,0-10.2-0.8-13.4-1.7v17.6l-3.1,0.3V31.3h2.8l0.3,4.2
			c3.8-2.9,9.7-5.1,14.6-5.1C124.1,30.5,127.6,34.6,127.6,41.7z M101.5,38.6v29.5c3.3,0.8,8,1.7,13.4,1.7c6.6,0,9.6-2.9,9.6-9.2
			V41.7c0-5.7-2.6-8.5-8.5-8.5C110.7,33.3,105,35.9,101.5,38.6z"/>
		<path fill="#333333" d="M137.8,58V45.6c0-8.7,4.3-15.2,15.1-15.2c10.7,0,14.6,6.9,14.6,15.2v8h-26.6v4.6c0,7.7,3.6,11.7,12.3,11.7
			c5.2,0,9-0.8,13-1.9l0.5,2.6c-3.3,1.3-9.1,2-13.6,2C142,72.6,137.8,66.9,137.8,58z M164.4,50.8v-5c0-7.6-3.1-12.6-11.5-12.6
			c-8.5,0-11.9,4.7-11.9,12.5v5.1H164.4z"/>
		<path fill="#333333" d="M178.5,31.3h2.8l0.3,6.2c3-2.5,8.2-5.4,12.6-6.9l0.8,2.6c-3.8,1.5-9.3,4.5-13.4,7.2v31.4h-3.1V31.3z"/>
		<path fill="#333333" d="M202.6,13.7l3.1-0.4v58.5h-3.1V13.7z"/>
		<path fill="#333333" d="M217.6,61.1c0-7.8,3.2-11.9,11.8-11.9h14.5v-7.7c0-6-2.4-8.3-9.9-8.3c-4,0-8.1,0.8-11.7,1.8l-0.6-2.7
			c3.6-1,8.4-1.9,12.4-1.9c9,0,12.9,3.3,12.9,10.9v30.4h-2.7l-0.3-3.6c-2.6,1.6-9.4,4.4-15.2,4.4C220.7,72.6,217.6,68.1,217.6,61.1z
			 M243.9,65.5V52.1h-14.2c-7.1,0-8.9,3-8.9,9.1c0,5.3,1.9,8.8,8.4,8.8C234.5,69.9,240,67.6,243.9,65.5z"/>
		<path fill="#333333" d="M270.1,51.2l-13.5-19.9h3.3L271.7,49l11.9-17.7h3.3l-13.6,19.9l14.1,20.6h-3.4l-12.4-18.3l-12.3,18.3H256
			L270.1,51.2z"/>
	</g>
	<g>
		<g>
			<path fill="#FFFFFF" d="M13.8,13.9h3.1v25.8h30.4V13.9h3.1v56.4h-3.1V42.5H16.9v27.8h-3.1V13.9z"/>
			<path fill="#FFFFFF" d="M73.8,70.3h-1.6L58.9,29.8h3l12.5,38.3l12.7-38.3h3.1L76.7,70.3L71,87h-3L73.8,70.3z"/>
			<path fill="#FFFFFF" d="M127.6,40.2v19c0,8-4.2,12-12.7,12c-4.8,0-10.2-0.8-13.4-1.7v17.6l-3.1,0.3V29.8h2.8l0.3,4.2
				c3.8-2.9,9.7-5.1,14.6-5.1C124.1,29,127.6,33.1,127.6,40.2z M101.5,37.1v29.5c3.3,0.8,8,1.7,13.4,1.7c6.6,0,9.6-2.9,9.6-9.2V40.3
				c0-5.7-2.6-8.5-8.5-8.5C110.7,31.8,105,34.4,101.5,37.1z"/>
			<path fill="#FFFFFF" d="M137.8,56.5V44.2c0-8.7,4.3-15.2,15.1-15.2c10.7,0,14.6,6.9,14.6,15.2v8h-26.6v4.6
				c0,7.7,3.6,11.7,12.3,11.7c5.2,0,9-0.8,13-1.9l0.5,2.6c-3.3,1.3-9.1,2-13.6,2C142,71.2,137.8,65.4,137.8,56.5z M164.4,49.3v-5
				c0-7.6-3.1-12.6-11.5-12.6c-8.5,0-11.9,4.7-11.9,12.5v5.1H164.4z"/>
			<path fill="#FFFFFF" d="M178.5,29.8h2.8l0.3,6.2c3-2.5,8.2-5.4,12.6-6.9l0.8,2.6c-3.8,1.5-9.3,4.5-13.4,7.2v31.4h-3.1V29.8z"/>
			<path fill="#FFFFFF" d="M202.6,12.2l3.1-0.4v58.5h-3.1V12.2z"/>
			<path fill="#FFFFFF" d="M217.6,59.6c0-7.8,3.2-11.9,11.8-11.9h14.5v-7.7c0-6-2.4-8.3-9.9-8.3c-4,0-8.1,0.8-11.7,1.8l-0.6-2.7
				c3.6-1,8.4-1.9,12.4-1.9c9,0,12.9,3.3,12.9,10.9v30.4h-2.7l-0.3-3.6c-2.6,1.6-9.4,4.4-15.2,4.4C220.7,71.2,217.6,66.6,217.6,59.6
				z M243.9,64V50.6h-14.2c-7.1,0-8.9,3-8.9,9.1c0,5.3,1.9,8.8,8.4,8.8C234.5,68.4,240,66.1,243.9,64z"/>
			<path fill="#FFFFFF" d="M270.1,49.7l-13.5-19.9h3.3l11.9,17.7l11.9-17.7h3.3l-13.6,19.9l14.1,20.6h-3.4L271.7,52l-12.3,18.3H256
				L270.1,49.7z"/>
		</g>
	</g>
</g>
</svg>
