<?xml version="1.0" encoding="utf-8"?>
<!-- Generator: Adobe Illustrator 18.1.1, SVG Export Plug-In . SVG Version: 6.00 Build 0)  -->
<!DOCTYPE svg PUBLIC "-//W3C//DTD SVG 1.1//EN" "http://www.w3.org/Graphics/SVG/1.1/DTD/svg11.dtd">
<svg version="1.1" id="Layer_1" xmlns="http://www.w3.org/2000/svg" xmlns:xlink="http://www.w3.org/1999/xlink" x="0px" y="0px"
	 viewBox="0 0 80 70" enable-background="new 0 0 80 70" xml:space="preserve">
<g>
	<g opacity="0.75">
		<path fill="#333333" d="M68.4,60.3c-0.3,0.8-1,1.4-1.9,1.4H13.4c-0.9,0-1.7-0.6-1.9-1.4c-4.7-15.3-4.7-33.9,0-49.2
			c0.3-0.8,1-1.4,1.9-1.4h53.1c0.9,0,1.7,0.6,1.9,1.4C73.1,26.4,73.1,45.1,68.4,60.3z"/>
	</g>
	<g>
		<path fill="#E1F5FA" d="M68.4,59.3c-0.3,0.8-1,1.4-1.9,1.4H13.4c-0.9,0-1.7-0.6-1.9-1.4c-4.7-15.3-4.7-33.9,0-49.2
			c0.3-0.8,1-1.4,1.9-1.4h53.1c0.9,0,1.7,0.6,1.9,1.4C73.1,25.4,73.1,44.1,68.4,59.3z"/>
	</g>
</g>
<circle fill="#009FC7" cx="39.9" cy="34.8" r="16"/>
<path fill="#FFFFFF" d="M23.9,34.8c0-8.8,7.2-16,16-16c4,0,7.7,1.5,10.5,3.9L64.3,8.8H13.4c-0.9,0-1.7,0.6-1.9,1.4
	c-4.7,15.3-4.7,33.9,0,49.2c0.2,0.5,0.6,1,1,1.2l15.3-15.3C25.4,42.4,23.9,38.8,23.9,34.8z"/>
<path fill="#00B7E5" d="M33.9,39.1l-6.1,6.1c-2.4-2.8-3.9-6.5-3.9-10.5c0-8.8,7.2-16,16-16c4,0,7.7,1.5,10.5,3.9l-8.2,8.2L33.9,39.1
	z"/>
<path fill="#FFFFFF" d="M34.8,29.8v10.3c-2.1-0.5-4.2,0.5-4.2,2c0,1.2,1.4,2.1,3.2,2.1c1.8,0,3.2-0.9,3.2-2.1V31.2l6.3-2.8v7.5
	c-2.1-0.5-4.2,0.5-4.2,2c0,1.2,1.4,2.1,3.2,2.1c1.8,0,3.2-0.9,3.2-2.1V25.2L34.8,29.8z"/>
</svg>
